<svg width="24" height="24" viewBox="0 0 24 24" fill="none" xmlns="http://www.w3.org/2000/svg">
    <path d="M11.1165 4.49617C11.4689 4.70843 11.7639 4.92074 12 5.10871C12.2361 4.92074 12.5311 4.70842 12.8835 4.49617C13.893 3.8882 15.382 3.27661 17.2999 3.2508C20.078 3.2134 21.8054 4.49975 22.5815 5.26701C23.0789 5.75869 23.25 6.40401 23.25 6.96625V18.6356C23.25 19.3001 22.8152 19.7563 22.3932 19.9619C21.9748 20.1658 21.3897 20.2185 20.8789 19.8989C20.1332 19.4323 18.9085 18.8751 17.3125 18.8751C15.9365 18.8751 14.7534 19.2887 13.9036 19.7136C13.4808 19.925 13.1479 20.1355 12.9243 20.2904C12.8127 20.3676 12.6612 20.4846 12.6079 20.5261C12.4328 20.6754 12.2164 20.75 12 20.75C11.7836 20.75 11.5672 20.6754 11.3921 20.5261C11.3388 20.4846 11.1873 20.3676 11.0757 20.2904C10.8521 20.1355 10.5192 19.925 10.0964 19.7136C9.24661 19.2887 8.06348 18.8751 6.6875 18.8751C5.09153 18.8751 3.86685 19.4323 3.12107 19.8989C2.61034 20.2185 2.02516 20.1658 1.60681 19.9619C1.18484 19.7563 0.75 19.3001 0.75 18.6356V6.96625C0.75 6.40401 0.921119 5.75869 1.41849 5.26701C2.19464 4.49974 3.92201 3.2134 6.70012 3.2508C8.61805 3.27661 10.107 3.8882 11.1165 4.49617ZM10.6054 17.8862C10.8178 17.9804 11.0625 17.8281 11.0625 17.5959V7.05229C11.0625 6.87241 10.986 6.70005 10.8453 6.58791C10.6596 6.43984 10.4209 6.26597 10.1491 6.1023C9.36179 5.62813 8.19445 5.146 6.67489 5.12555C4.54264 5.09685 3.27264 6.07055 2.73669 6.60036C2.68721 6.64928 2.625 6.75956 2.625 6.96625V17.4988C2.625 17.735 2.87754 17.8871 3.09204 17.7884C4.01436 17.3638 5.2297 17.0001 6.6875 17.0001C8.19471 17.0001 9.59179 17.4374 10.6054 17.8862ZM13.3946 17.8862C14.4082 17.4374 15.8053 17.0001 17.3125 17.0001C18.7703 17.0001 19.9856 17.3638 20.908 17.7884C21.1225 17.8871 21.375 17.735 21.375 17.4988V6.96625C21.375 6.75956 21.3128 6.64928 21.2633 6.60036C20.7274 6.07055 19.4574 5.09685 17.3251 5.12555C15.8055 5.146 14.6382 5.62813 13.8509 6.1023C13.5791 6.26597 13.3404 6.43984 13.1547 6.58791C13.014 6.70005 12.9375 6.87241 12.9375 7.05229V17.5959C12.9375 17.8281 13.1822 17.9804 13.3946 17.8862Z" fill="currentColor"/>
</svg>
