<svg width="16" height="16" viewBox="0 0 16 16" fill="none" xmlns="http://www.w3.org/2000/svg">
    <path fill-rule="evenodd" clip-rule="evenodd" d="M1.5 7.5C1.5 4.89136 4.23872 2.5 8 2.5C11.7613 2.5 14.5 4.89136 14.5 7.5C14.5 10.0261 11.9397 12.3444 8.35272 12.4927C7.94127 12.5097 7.54728 12.662 7.23148 12.9225C6.0411 13.9048 4.88285 14.2823 4.06696 14.4222L4.74739 13.4769C5.222 12.8176 4.94137 11.9505 4.29818 11.6056C2.54891 10.6674 1.5 9.14 1.5 7.5ZM8 1C3.75315 1 0 3.75737 0 7.5C0 9.74929 1.38629 11.6655 3.37881 12.8106L2.20229 14.4451L2.1938 14.458C2.09615 14.6061 1.95589 14.8701 2.00184 15.195C2.05667 15.5828 2.32883 15.7914 2.51658 15.8804C2.68651 15.9609 2.85565 15.9825 2.94898 15.991C3.04859 16.0001 3.14324 16 3.19353 16L3.2 16C4.07838 16 6.11337 15.7898 8.18615 14.0795C8.25145 14.0256 8.33249 13.9948 8.4147 13.9914C12.4791 13.8234 16 11.121 16 7.5C16 3.75737 12.2469 1 8 1Z" fill="currentColor"/>
</svg>
