<svg width="24" height="24" viewBox="0 0 24 24" fill="none" xmlns="http://www.w3.org/2000/svg">
    <path d="M20.125 12C20.125 7.51269 16.4873 3.875 12 3.875C7.51269 3.875 3.875 7.51269 3.875 12C3.875 16.4873 7.51269 20.125 12 20.125C16.4873 20.125 20.125 16.4873 20.125 12ZM22 12C22 17.5228 17.5228 22 12 22C6.47715 22 2 17.5228 2 12C2 6.47715 6.47715 2 12 2C17.5228 2 22 6.47715 22 12ZM16.9553 7.85712C17.0482 7.62498 16.9937 7.35985 16.8169 7.18306C16.6402 7.00627 16.375 6.95185 16.1429 7.0447L10.3903 9.34574C9.91384 9.53632 9.53632 9.91384 9.34574 10.3903L7.0447 16.1429C6.95185 16.375 7.00627 16.6402 7.18306 16.8169C7.35985 16.9937 7.62498 17.0482 7.85712 16.9553L13.6097 14.6543C14.0862 14.4637 14.4637 14.0862 14.6543 13.6097L16.9553 7.85712ZM13.25 12C13.25 12.6904 12.6904 13.25 12 13.25C11.3096 13.25 10.75 12.6904 10.75 12C10.75 11.3096 11.3096 10.75 12 10.75C12.6904 10.75 13.25 11.3096 13.25 12Z" fill="currentColor"/>
</svg>
