<svg width="16" height="16" viewBox="0 0 16 16" fill="none" xmlns="http://www.w3.org/2000/svg">
    <path fill-rule="evenodd" clip-rule="evenodd" d="M11.2 2.5H4.8C3.93517 2.5 3.37676 2.50117 2.95175 2.53589C2.54426 2.56918 2.39318 2.6257 2.31901 2.66349C2.03677 2.8073 1.8073 3.03677 1.66349 3.31901C1.6257 3.39318 1.56918 3.54426 1.53589 3.95175C1.50117 4.37676 1.5 4.93517 1.5 5.8V10.2C1.5 11.0648 1.50117 11.6232 1.53589 12.0482C1.56918 12.4557 1.6257 12.6068 1.66349 12.681C1.8073 12.9632 2.03677 13.1927 2.31901 13.3365C2.39318 13.3743 2.54426 13.4308 2.95175 13.4641C3.37676 13.4988 3.93517 13.5 4.8 13.5H11.2C12.0648 13.5 12.6232 13.4988 13.0482 13.4641C13.4557 13.4308 13.6068 13.3743 13.681 13.3365C13.9632 13.1927 14.1927 12.9632 14.3365 12.681C14.3743 12.6068 14.4308 12.4557 14.4641 12.0482C14.4988 11.6232 14.5 11.0648 14.5 10.2V5.8C14.5 4.93517 14.4988 4.37676 14.4641 3.95175C14.4308 3.54426 14.3743 3.39318 14.3365 3.31901C14.1927 3.03677 13.9632 2.8073 13.681 2.66349C13.6068 2.6257 13.4557 2.56918 13.0482 2.53589C12.6232 2.50117 12.0648 2.5 11.2 2.5ZM0.32698 2.63803C0 3.27976 0 4.11984 0 5.8V10.2C0 11.8802 0 12.7202 0.32698 13.362C0.614601 13.9265 1.07354 14.3854 1.63803 14.673C2.27976 15 3.11984 15 4.8 15H11.2C12.8802 15 13.7202 15 14.362 14.673C14.9265 14.3854 15.3854 13.9265 15.673 13.362C16 12.7202 16 11.8802 16 10.2V5.8C16 4.11984 16 3.27976 15.673 2.63803C15.3854 2.07354 14.9265 1.6146 14.362 1.32698C13.7202 1 12.8802 1 11.2 1H4.8C3.11984 1 2.27976 1 1.63803 1.32698C1.07354 1.6146 0.614601 2.07354 0.32698 2.63803ZM3.19254 4.24828C3.46963 3.94039 3.94385 3.91543 4.25173 4.19253L6.75173 6.44253C6.90977 6.58476 7.00001 6.78738 7.00001 7C7.00001 7.21261 6.90977 7.41524 6.75173 7.55747L4.25173 9.80747C3.94385 10.0846 3.46963 10.0596 3.19254 9.75172C2.91544 9.44384 2.9404 8.96962 3.24828 8.69253L5.12887 7L3.24828 5.30747C2.9404 5.03038 2.91544 4.55616 3.19254 4.24828ZM7.75 8.5C7.33579 8.5 7 8.83579 7 9.25C7 9.66421 7.33579 10 7.75 10H10.25C10.6642 10 11 9.66421 11 9.25C11 8.83579 10.6642 8.5 10.25 8.5H7.75Z" fill="currentColor"/>
</svg>
