<svg width="16" height="16" viewBox="0 0 16 16" fill="none" xmlns="http://www.w3.org/2000/svg">
    <path d="M5.78033 15.7803C6.07322 15.4874 6.07322 15.0126 5.78033 14.7197L2.56066 11.5H10.75C13.6495 11.5 16 9.14949 16 6.25C16 3.3505 13.6495 1 10.75 1H8.75C8.33579 1 8 1.33579 8 1.75C8 2.16421 8.33579 2.5 8.75 2.5H10.75C12.8211 2.5 14.5 4.17893 14.5 6.25C14.5 8.32107 12.8211 10 10.75 10H2.56066L5.78033 6.78033C6.07322 6.48744 6.07322 6.01256 5.78033 5.71967C5.48744 5.42678 5.01256 5.42678 4.71967 5.71967L0.21967 10.2197C-0.0732233 10.5126 -0.0732233 10.9874 0.21967 11.2803L4.71967 15.7803C5.01256 16.0732 5.48744 16.0732 5.78033 15.7803Z" fill="currentColor"/>
</svg>
