<svg width="16" height="16" viewBox="0 0 16 16" fill="none" xmlns="http://www.w3.org/2000/svg">
    <path d="M8.25 2.90775e-07H5.31903C4.71531 -8.61836e-06 4.21702 -1.59703e-05 3.81113 0.0331465C3.38956 0.0675904 3.00203 0.141514 2.63803 0.326982C2.07354 0.614602 1.6146 1.07354 1.32698 1.63803C1.14151 2.00203 1.06759 2.38956 1.03315 2.81113C0.999984 3.21702 0.999991 3.71529 1 4.31901V11.681C0.999991 12.2847 0.999984 12.783 1.03315 13.1889C1.06759 13.6104 1.14151 13.998 1.32698 14.362C1.6146 14.9265 2.07354 15.3854 2.63803 15.673C3.00203 15.8585 3.38956 15.9324 3.81113 15.9669C4.217 16 4.71524 16 5.31892 16H8.25C8.66421 16 9 15.6642 9 15.25C9 14.8358 8.66421 14.5 8.25 14.5H5.35C4.70757 14.5 4.27085 14.4994 3.93328 14.4718C3.60447 14.445 3.43631 14.3963 3.31901 14.3365C3.03677 14.1927 2.8073 13.9632 2.66349 13.681C2.60372 13.5637 2.55503 13.3955 2.52816 13.0667C2.50058 12.7292 2.5 12.2924 2.5 11.65V4.35C2.5 3.70757 2.50058 3.27085 2.52816 2.93328C2.55503 2.60447 2.60372 2.43632 2.66349 2.31902C2.8073 2.03677 3.03677 1.8073 3.31901 1.66349C3.43631 1.60372 3.60447 1.55503 3.93328 1.52816C4.27085 1.50058 4.70757 1.5 5.35 1.5H8.25C8.66421 1.5 9 1.16421 9 0.750001C9 0.335788 8.66421 2.90775e-07 8.25 2.90775e-07ZM11.8011 11.7587C11.5202 12.0631 11.0457 12.0821 10.7413 11.8011C10.4369 11.5201 10.4179 11.0457 10.6989 10.7413L12.537 8.75H5.75C5.33579 8.75 5 8.41421 5 8C5 7.58578 5.33579 7.25 5.75 7.25H12.537L10.6989 5.25871C10.4179 4.95434 10.4369 4.47985 10.7413 4.19889C11.0457 3.91794 11.5202 3.93692 11.8011 4.24129L14.8011 7.49129C15.0663 7.77858 15.0663 8.22141 14.8011 8.50871L11.8011 11.7587Z" fill="currentColor"/>
</svg>
