<svg width="16" height="16" viewBox="0 0 16 16" fill="none" xmlns="http://www.w3.org/2000/svg">
    <path fill-rule="evenodd" clip-rule="evenodd" d="M1.64317 12.8496C1.49845 12.6767 1.36894 12.4512 1.10993 12.0001C0.850928 11.549 0.721417 11.3234 0.644857 11.1109C0.395943 10.4201 0.471338 9.69481 0.843965 9.19554C0.89994 9.12054 0.968387 9.05017 1.06266 8.96652C1.16141 8.8789 1.28849 8.77672 1.45926 8.63941L2.25445 8.00004L1.45928 7.36069C1.28851 7.22338 1.16141 7.12119 1.06266 7.03356C0.968385 6.94992 0.899936 6.87954 0.843961 6.80454C0.471334 6.30527 0.39594 5.57998 0.644853 4.88915C0.721414 4.67666 0.850921 4.45111 1.10993 4.00001C1.36893 3.54892 1.49844 3.32336 1.64317 3.15045C2.1137 2.58827 2.77605 2.29128 3.39237 2.36614C3.48373 2.37724 3.5773 2.40116 3.69428 2.44049C3.82002 2.48276 3.97281 2.54283 4.17901 2.62389L5.12723 2.99666L5.28029 1.98456C5.31298 1.76836 5.33736 1.60717 5.36329 1.47771C5.38832 1.35276 5.4148 1.25738 5.45162 1.17065C5.6953 0.596529 6.28227 0.168231 7.00171 0.0395727C7.22299 0 7.482 0 8.00002 0C8.51804 0 8.77705 0 8.99834 0.0395727C9.71778 0.168231 10.3047 0.596529 10.5484 1.17065C10.5852 1.25739 10.6117 1.35278 10.6368 1.47775C10.6627 1.60719 10.6871 1.76837 10.7198 1.98454L10.8728 2.9967L11.821 2.62395C12.0272 2.54287 12.18 2.4828 12.3058 2.44053C12.4227 2.40121 12.5163 2.37729 12.6076 2.3662C13.2239 2.29134 13.8863 2.58833 14.3568 3.1505C14.5016 3.32342 14.6311 3.54897 14.8901 4.00007C15.1491 4.45117 15.2786 4.67672 15.3551 4.8892C15.6041 5.58004 15.5287 6.30532 15.156 6.80459C15.1001 6.87957 15.0316 6.94994 14.9374 7.03356C14.8386 7.1212 14.7115 7.2234 14.5407 7.36074L13.7456 8.00004L14.5407 8.63934C14.7115 8.77668 14.8386 8.87888 14.9374 8.96652C15.0316 9.05014 15.1001 9.1205 15.156 9.19549C15.5287 9.69475 15.6041 10.42 15.3551 11.1109C15.2786 11.3234 15.1491 11.5489 14.8901 12C14.6311 12.4511 14.5016 12.6767 14.3568 12.8496C13.8863 13.4117 13.2239 13.7087 12.6076 13.6339C12.5163 13.6228 12.4227 13.5989 12.3058 13.5595C12.18 13.5173 12.0272 13.4572 11.821 13.3761L10.8728 13.0034L10.7198 14.0154C10.6871 14.2317 10.6627 14.3929 10.6367 14.5223C10.6117 14.6473 10.5852 14.7426 10.5484 14.8293C10.3047 15.4035 9.71778 15.8318 8.99834 15.9604C8.77705 16 8.51804 16 8.00002 16C7.482 16 7.22299 16 7.00171 15.9604C6.28227 15.8318 5.6953 15.4035 5.45162 14.8293C5.41481 14.7426 5.38833 14.6473 5.36331 14.5224C5.33737 14.3929 5.31299 14.2317 5.28029 14.0155L5.12724 13.0034L4.17902 13.3762C3.97282 13.4572 3.82003 13.5173 3.69429 13.5596C3.5773 13.5989 3.48374 13.6228 3.39237 13.6339C2.77606 13.7088 2.1137 13.4118 1.64317 12.8496ZM3.22353 3.86475C3.3065 3.89303 3.4186 3.9367 3.63021 4.01989L4.57843 4.39266C5.00328 4.55968 5.48108 4.52414 5.87654 4.29609C6.27201 4.06805 6.54211 3.67233 6.61037 3.22095L6.76342 2.20885C6.79755 1.98317 6.81606 1.86315 6.83331 1.77618C6.83608 1.76216 6.83843 1.75117 6.84031 1.74282C6.87042 1.69685 6.98487 1.56638 7.26576 1.51615C7.32347 1.50583 7.41934 1.5 8.00002 1.5C8.5807 1.5 8.67658 1.50583 8.73428 1.51615C9.01518 1.56638 9.12962 1.69685 9.15974 1.74282C9.16161 1.75117 9.16396 1.76216 9.16674 1.77618C9.18398 1.86315 9.20249 1.98316 9.23662 2.20884L9.38969 3.22099C9.45795 3.67236 9.72804 4.06809 10.1235 4.29613C10.519 4.52418 10.9968 4.55972 11.4216 4.3927L12.3698 4.01995C12.5814 3.93676 12.6935 3.89308 12.7765 3.8648C12.7878 3.86095 12.797 3.85792 12.8044 3.85557C12.8566 3.85978 13.0232 3.89422 13.2066 4.11325C13.2454 4.15965 13.2992 4.24185 13.5892 4.74696C13.8792 5.25187 13.9232 5.34011 13.944 5.39767C14.0434 5.67365 13.9869 5.84309 13.962 5.89331C13.956 5.89891 13.9481 5.90609 13.938 5.91496C13.872 5.97321 13.7782 6.04911 13.6008 6.19175L12.8057 6.83104C12.4516 7.11577 12.2456 7.54566 12.2456 8.00004C12.2456 8.45442 12.4516 8.88431 12.8057 9.16903L13.6008 9.80833C13.7782 9.95096 13.872 10.0269 13.938 10.0851L13.9497 10.0955L13.962 10.1068C13.9869 10.157 14.0434 10.3264 13.944 10.6024C13.9232 10.66 13.8791 10.7482 13.5892 11.2531C13.2992 11.7582 13.2454 11.8404 13.2066 11.8868C13.0232 12.1058 12.8566 12.1403 12.8044 12.1445C12.797 12.1422 12.7878 12.1391 12.7765 12.1353C12.6935 12.107 12.5814 12.0633 12.3698 11.9801L11.4216 11.6074C10.9968 11.4404 10.519 11.4759 10.1235 11.7039C9.72803 11.932 9.45794 12.3277 9.38968 12.7791L9.23662 13.7912C9.20249 14.0168 9.18398 14.1368 9.16674 14.2238C9.16396 14.2378 9.16161 14.2488 9.15974 14.2572C9.12962 14.3031 9.01518 14.4336 8.73428 14.4839C8.67658 14.4942 8.5807 14.5 8.00002 14.5C7.41934 14.5 7.32347 14.4942 7.26576 14.4839C6.98487 14.4336 6.87042 14.3031 6.84031 14.2572C6.83844 14.2488 6.83608 14.2378 6.83331 14.2238C6.81606 14.1368 6.79755 14.0168 6.76342 13.7912L6.61038 12.7791C6.54212 12.3277 6.27202 11.932 5.87655 11.704C5.48109 11.4759 5.00329 11.4404 4.57844 11.6074L3.63021 11.9802C3.4186 12.0634 3.3065 12.1071 3.22354 12.1353C3.21224 12.1392 3.20298 12.1422 3.19558 12.1446C3.14337 12.1404 2.97676 12.1059 2.79344 11.8869C2.75461 11.8405 2.70078 11.7583 2.41076 11.2532C2.12086 10.7483 2.07679 10.66 2.05605 10.6025C1.95661 10.3265 2.01312 10.157 2.03797 10.1068C2.04402 10.1012 2.05193 10.094 2.06198 10.0852C2.12799 10.0269 2.2218 9.95102 2.3992 9.80839L3.19437 9.16904C3.54849 8.88431 3.75445 8.45442 3.75445 8.00004C3.75445 7.54566 3.54849 7.11577 3.19437 6.83105L2.3992 6.19169C2.2218 6.04906 2.12799 5.97316 2.06198 5.91491C2.05193 5.90603 2.04402 5.89885 2.03796 5.89325C2.01311 5.84303 1.95661 5.6736 2.05605 5.39761C2.07678 5.34006 2.12085 5.25181 2.41075 4.74691C2.70077 4.2418 2.7546 4.15959 2.79343 4.1132C2.97676 3.89417 3.14337 3.85972 3.19558 3.85552C3.20297 3.85786 3.21223 3.86089 3.22353 3.86475ZM9.5 8C9.5 8.82843 8.82843 9.5 8 9.5C7.17157 9.5 6.5 8.82843 6.5 8C6.5 7.17157 7.17157 6.5 8 6.5C8.82843 6.5 9.5 7.17157 9.5 8ZM11 8C11 9.65685 9.65685 11 8 11C6.34315 11 5 9.65685 5 8C5 6.34315 6.34315 5 8 5C9.65685 5 11 6.34315 11 8Z" fill="currentColor"/>
</svg>
