<svg width="16" height="16" viewBox="0 0 16 16" fill="none" xmlns="http://www.w3.org/2000/svg">
    <path d="M11.7803 7.53033C12.0732 7.23744 12.0732 6.76256 11.7803 6.46967C11.4874 6.17678 11.0126 6.17678 10.7197 6.46967L8.75 8.43934V0.75C8.75 0.335786 8.41421 0 8 0C7.58578 0 7.25 0.335786 7.25 0.75V8.43934L5.28033 6.46967C4.98743 6.17678 4.51256 6.17678 4.21967 6.46967C3.92677 6.76256 3.92677 7.23744 4.21967 7.53033L7.46967 10.7803C7.76256 11.0732 8.23743 11.0732 8.53033 10.7803L11.7803 7.53033ZM2.5 8.75C2.5 8.33579 2.16421 8 1.75 8C1.33579 8 1 8.33579 1 8.75V11.681C0.999991 12.2847 0.999983 12.783 1.03315 13.1889C1.06759 13.6104 1.14151 13.998 1.32698 14.362C1.6146 14.9265 2.07354 15.3854 2.63803 15.673C3.00203 15.8585 3.38956 15.9324 3.81113 15.9669C4.217 16 4.71524 16 5.31892 16H10.681C11.2847 16 11.783 16 12.1889 15.9669C12.6104 15.9324 12.998 15.8585 13.362 15.673C13.9265 15.3854 14.3854 14.9265 14.673 14.362C14.8585 13.998 14.9324 13.6104 14.9669 13.1889C15 12.783 15 12.2847 15 11.681V8.75C15 8.33579 14.6642 8 14.25 8C13.8358 8 13.5 8.33579 13.5 8.75V11.65C13.5 12.2924 13.4994 12.7292 13.4718 13.0667C13.445 13.3955 13.3963 13.5637 13.3365 13.681C13.1927 13.9632 12.9632 14.1927 12.681 14.3365C12.5637 14.3963 12.3955 14.445 12.0667 14.4718C11.7292 14.4994 11.2924 14.5 10.65 14.5H5.35C4.70757 14.5 4.27085 14.4994 3.93328 14.4718C3.60447 14.445 3.43632 14.3963 3.31902 14.3365C3.03677 14.1927 2.8073 13.9632 2.66349 13.681C2.60372 13.5637 2.55503 13.3955 2.52816 13.0667C2.50058 12.7292 2.5 12.2924 2.5 11.65V8.75Z" fill="currentColor"/>
</svg>
