<svg width="16" height="16" viewBox="0 0 16 16" fill="none" xmlns="http://www.w3.org/2000/svg">
    <path d="M9.97941 2.10451C10.7848 1.2985 12.0903 1.2985 12.8957 2.10451C13.7014 2.91085 13.7014 4.21842 12.8957 5.02475L6.62003 11.3102C6.36379 11.5664 5.94856 11.5666 5.69241 11.3102C5.43586 11.0535 5.43586 10.637 5.69241 10.3802L9.7811 6.27955C10.0736 5.98623 10.0729 5.51136 9.77955 5.21889C9.48623 4.92643 9.01136 4.92712 8.71889 5.22045L4.63111 9.32019C3.78955 10.1626 3.78963 11.5281 4.63133 12.3705C5.47344 13.2132 6.839 13.2132 7.6811 12.3705L13.9568 6.085C15.3477 4.69297 15.3477 2.43629 13.9568 1.04426C12.5655 -0.348088 10.3096 -0.348088 8.91833 1.04426L2.45508 7.51256C0.514973 9.45418 0.514974 12.6019 2.45508 14.5435C4.39509 16.4851 7.54045 16.4855 9.48098 14.5448L13.7782 10.2825C14.0722 9.99079 14.0742 9.51592 13.7825 9.22184C13.4908 8.92775 13.0159 8.92582 12.7218 9.21751L8.42116 13.4833C7.06661 14.8389 4.8707 14.8389 3.51615 13.4833C2.16128 12.1274 2.16128 9.92873 3.51615 8.57281L9.97941 2.10451Z" fill="currentColor"/>
</svg>
