<svg width="24" height="24" viewBox="0 0 24 24" fill="none" xmlns="http://www.w3.org/2000/svg">
    <path d="M11.586 2.16167C11.5279 1.94611 11.2221 1.94611 11.164 2.16167L10.9388 2.99832C10.8809 3.21314 10.7131 3.38093 10.4983 3.43877L9.66167 3.66404C9.44611 3.72208 9.44611 4.02792 9.66167 4.08596L10.4983 4.31123C10.7131 4.36907 10.8809 4.53687 10.9388 4.75168L11.164 5.58833C11.2221 5.80389 11.5279 5.80389 11.586 5.58833L11.8112 4.75168C11.8691 4.53686 12.0369 4.36907 12.2517 4.31123L13.0883 4.08596C13.3039 4.02792 13.3039 3.72208 13.0883 3.66404L12.2517 3.43877C12.0369 3.38093 11.8691 3.21313 11.8112 2.99832L11.586 2.16167ZM7.07426 5.4214C6.96785 5.0262 6.40715 5.0262 6.30074 5.4214L5.88775 6.95525C5.84799 7.10293 5.77987 7.2385 5.6895 7.35586C5.68069 7.3673 5.67166 7.37857 5.66244 7.38966C5.62039 7.44018 5.57407 7.487 5.524 7.52957L5.51466 7.53744C5.38982 7.64132 5.24233 7.71911 5.08025 7.76275L3.5464 8.17574C3.1512 8.28215 3.1512 8.84286 3.5464 8.94926L5.08025 9.36225C5.22793 9.40201 5.3635 9.47013 5.48086 9.5605C5.4923 9.56931 5.50357 9.57834 5.51466 9.58756C5.56518 9.62961 5.612 9.67593 5.65457 9.726L5.66244 9.73534C5.76632 9.86018 5.84411 10.0077 5.88775 10.1698L6.30074 11.7036C6.40715 12.0988 6.96786 12.0988 7.07426 11.7036L7.48725 10.1698C7.52701 10.0221 7.59513 9.8865 7.6855 9.76914C7.69431 9.7577 7.70334 9.74643 7.71256 9.73534C7.75461 9.68482 7.80093 9.638 7.851 9.59543L7.86034 9.58756C7.98518 9.48368 8.13267 9.40589 8.29475 9.36225L9.8286 8.94926C10.2238 8.84285 10.2238 8.28215 9.8286 8.17574L8.29475 7.76275C8.14707 7.72299 8.0115 7.65487 7.89414 7.5645C7.892 7.56284 7.88986 7.56119 7.88772 7.55952C7.87848 7.5523 7.86935 7.54493 7.86034 7.53744C7.80982 7.49539 7.763 7.44907 7.72043 7.399L7.71256 7.38966C7.60868 7.26482 7.53089 7.11733 7.48725 6.95525L7.07426 5.4214ZM12.4062 7.64669C12.6383 6.78444 13.8617 6.78443 14.0938 7.64669L14.9949 10.9933C15.2263 11.8525 15.8975 12.5237 16.7567 12.7551L20.1033 13.6562C20.9656 13.8883 20.9656 15.1117 20.1033 15.3438L16.7567 16.2449C15.8975 16.4763 15.2263 17.1475 14.9949 18.0067L14.0938 21.3533C13.8617 22.2156 12.6383 22.2156 12.4062 21.3533L11.5051 18.0067C11.2737 17.1475 10.6025 16.4763 9.74327 16.2449L6.39669 15.3438C5.53444 15.1117 5.53443 13.8883 6.39669 13.6562L9.74326 12.7551C10.6025 12.5237 11.2737 11.8525 11.5051 10.9933L12.4062 7.64669Z" fill="currentColor"/>
</svg>
