<svg width="16" height="16" viewBox="0 0 16 16" fill="none" xmlns="http://www.w3.org/2000/svg">
    <path d="M14.1997 1.79834C13.8022 1.40083 13.1578 1.40083 12.7603 1.79834L12.3107 2.24806L13.75 3.68759L14.1997 3.23787C14.5971 2.84036 14.5971 2.19586 14.1997 1.79834ZM2.6468 11.9133C2.49659 12.0635 2.38714 12.2496 2.32878 12.4538L1.84203 14.1577L3.54566 13.6709C3.74992 13.6125 3.93593 13.5031 4.08614 13.3528L12.6893 4.7484L11.25 3.30887L2.6468 11.9133ZM11.6997 0.737536C12.6829 -0.245843 14.2771 -0.245846 15.2603 0.73753C16.2436 1.72091 16.2436 3.31529 15.2603 4.29868L5.1468 14.4136C4.81633 14.7441 4.4071 14.985 3.95774 15.1134L0.956057 15.9711C0.694162 16.046 0.412286 15.9729 0.219688 15.7803C0.0270896 15.5877 -0.045952 15.3057 0.0288751 15.0438L0.886499 12.0417C1.01489 11.5923 1.25568 11.183 1.58615 10.8525L11.6997 0.737536ZM6.75002 14.4998C6.3358 14.4998 6.00002 14.8356 6.00002 15.2499C6.00002 15.6641 6.3358 16 6.75002 16H15.25C15.6642 16 16 15.6641 16 15.2499C16 14.8356 15.6642 14.4998 15.25 14.4998H6.75002Z" fill="currentColor"/>
</svg>
