<svg width="16" height="16" viewBox="0 0 16 16" fill="none" xmlns="http://www.w3.org/2000/svg">
    <path d="M6.3129 7.57259C6.19153 7.50718 6.07395 7.43492 5.96063 7.35631C4.93256 6.6431 4.25266 5.40629 4.25266 3.99998C4.25266 1.79085 5.93039 0 7.99997 0C10.0695 0 11.7473 1.79085 11.7473 3.99998C11.7473 5.40588 11.0678 6.64237 10.0402 7.35567C9.92695 7.4343 9.80946 7.50656 9.68819 7.57199C9.18085 7.84574 8.60728 7.99996 7.99997 7.99996C7.39341 7.99981 6.81987 7.84584 6.3129 7.57259ZM8.0002 6.49996C8.43111 6.49991 8.83575 6.36579 9.18484 6.12346C9.80359 5.69394 10.2473 4.92047 10.2473 3.99998C10.2473 2.52558 9.15042 1.5 7.99997 1.5C6.84951 1.5 5.75266 2.52558 5.75266 3.99998C5.75266 4.92075 6.19661 5.6944 6.81563 6.12384C7.1643 6.36572 7.56939 6.49984 8.0002 6.49996Z" fill="currentColor"/>
    <path d="M7.99981 8.99995C7.34322 9.00015 6.67113 9.03458 6.04984 9.10738C5.89068 9.12603 5.73486 9.1472 5.58348 9.17095C5.33314 9.21024 5.09493 9.2566 4.87387 9.31035L4.87238 9.31071C3.71084 9.59505 2.59488 10.2864 1.86974 11.1208C1.19013 11.9028 0.568007 13.2083 1.39738 14.4045C2.05648 15.3552 3.1328 15.7049 4.19575 15.8578C5.19267 16.0013 6.41306 16.0006 7.71774 15.9999H8.28221C9.58692 16.0006 10.8073 16.0013 11.8042 15.8578C12.8672 15.7049 13.9435 15.3552 14.6026 14.4045C15.432 13.2083 14.8099 11.9028 14.1302 11.1208C13.4051 10.2864 12.2891 9.59505 11.1276 9.31071C10.9063 9.25654 10.6679 9.20991 10.4174 9.17047C10.2662 9.14666 10.1105 9.12547 9.95158 9.10682C9.32947 9.03383 8.65666 8.99977 7.99981 8.99995ZM5.81602 10.6528C6.46459 10.551 7.23395 10.5002 8.00041 10.5C8.7668 10.4997 9.53574 10.5501 10.1841 10.6522C10.4006 10.6863 10.5971 10.7251 10.7709 10.7677C11.6352 10.9793 12.4789 11.5074 12.9981 12.1047C13.2326 12.3746 13.4088 12.685 13.4732 12.9553C13.5268 13.1798 13.5056 13.3542 13.3699 13.5499C13.0749 13.9753 12.5304 14.2379 11.5906 14.3731C10.7232 14.498 9.62197 14.5007 8.28221 14.4999H7.71692C6.37716 14.5007 5.27683 14.498 4.40943 14.3731C3.46965 14.2379 2.92508 13.9753 2.63009 13.5499C2.49441 13.3542 2.47321 13.1798 2.52677 12.9553C2.59124 12.685 2.76741 12.3746 3.00192 12.1047C3.5209 11.5076 4.36431 10.9796 5.22829 10.7679C5.40245 10.7255 5.59928 10.6868 5.81602 10.6528Z" fill="currentColor"/>
</svg>
