<svg width="16" height="16" viewBox="0 0 16 16" fill="none" xmlns="http://www.w3.org/2000/svg">
    <path d="M12.166 5.54181L7.06025 2.35127C5.5738 1.4224 4.83058 0.95796 4.21643 1.00299C3.68118 1.04223 3.18949 1.30728 2.86841 1.72964C2.5 2.21426 2.5 3.07933 2.5 4.80948V11.1905C2.5 12.9207 2.5 13.7857 2.86841 14.2704C3.18949 14.6927 3.68117 14.9578 4.21642 14.997C4.83057 15.042 5.5738 14.5776 7.06024 13.6487L12.1659 10.4582C13.4735 9.64118 14.1272 9.23266 14.3524 8.71192C14.5492 8.25699 14.5492 7.74306 14.3524 7.28813C14.1272 6.76739 13.4735 6.35886 12.166 5.54181Z" fill="currentColor"/>
</svg>
