<svg width="16" height="16" viewBox="0 0 16 16" fill="none" xmlns="http://www.w3.org/2000/svg">
    <path d="M5.6 14.5C5.17762 14.5 4.81557 14.4998 4.5 14.4965V11C4.5 10.7239 4.72386 10.5 5 10.5H11C11.2761 10.5 11.5 10.7239 11.5 11V14.4965C11.1844 14.4998 10.8224 14.5 10.4 14.5H5.6ZM13 11C13 9.89543 12.1046 9 11 9H5C3.89543 9 3 9.89543 3 11V14.4053C2.79324 14.3685 2.67474 14.3242 2.59202 14.282C2.21569 14.0903 1.90973 13.7843 1.71799 13.408C1.65295 13.2803 1.58281 13.0675 1.5427 12.5766C1.50117 12.0683 1.5 11.4048 1.5 10.4V5.6C1.5 4.59516 1.50117 3.93174 1.5427 3.42335C1.58281 2.93248 1.65295 2.71966 1.71799 2.59202C1.90973 2.21569 2.21569 1.90973 2.59202 1.71799C2.71966 1.65295 2.93248 1.58281 3.42335 1.5427C3.5954 1.52865 3.78521 1.51921 4 1.51288V4C4 5.10457 4.89543 6 6 6H10C11.1046 6 12 5.10457 12 4V3.12132L13.2991 4.42046C13.955 5.07627 14.1032 5.23813 14.2053 5.40475C14.3149 5.58369 14.3957 5.77878 14.4447 5.98286C14.4904 6.17288 14.5 6.39213 14.5 7.3196V10.4C14.5 11.4048 14.4988 12.0683 14.4573 12.5766C14.4172 13.0675 14.3471 13.2803 14.282 13.408C14.0903 13.7843 13.7843 14.0903 13.408 14.282C13.3253 14.3242 13.2068 14.3685 13 14.4053V11ZM5.5 1.50001C5.53295 1.5 5.56628 1.5 5.6 1.5H8.6804C9.60787 1.5 9.82712 1.50964 10.0171 1.55526C10.1856 1.59569 10.3478 1.65779 10.5 1.73989V4C10.5 4.27614 10.2761 4.5 10 4.5H6C5.72386 4.5 5.5 4.27614 5.5 4V1.50001ZM11.9885 1C11.7596 0.785905 11.5773 0.63725 11.379 0.515759C11.0658 0.323859 10.7244 0.182444 10.3673 0.0967053C9.96451 0 9.53647 0 8.6804 0H5.6C3.63982 0 2.65972 0 1.91103 0.381477C1.25247 0.717034 0.717034 1.25247 0.381477 1.91103C0 2.65972 0 3.63982 0 5.6V10.4C0 12.3602 0 13.3403 0.381477 14.089C0.717034 14.7475 1.25247 15.283 1.91103 15.6185C2.65972 16 3.63982 16 5.6 16H10.4C12.3602 16 13.3403 16 14.089 15.6185C14.7475 15.283 15.283 14.7475 15.6185 14.089C16 13.3403 16 12.3602 16 10.4V7.3196C16 6.46353 16 6.0355 15.9033 5.63269C15.8176 5.27556 15.6761 4.93416 15.4842 4.621C15.2678 4.2678 14.9651 3.96513 14.3598 3.3598L12.6402 1.6402C12.3803 1.38034 12.1763 1.17625 12 1.01082V1H11.9885Z" fill="currentColor"/>
</svg>
