<svg width="24" height="24" viewBox="0 0 24 24" fill="none" xmlns="http://www.w3.org/2000/svg">
    <path d="M17.25 5.125C18.331 5.125 19.0291 5.12646 19.5603 5.16986C20.0697 5.21148 20.2585 5.28213 20.3512 5.32936C20.704 5.50913 20.9909 5.79596 21.1706 6.14877C21.2179 6.24148 21.2885 6.43032 21.3301 6.93969C21.3735 7.47095 21.375 8.16896 21.375 9.25V14.75C21.375 15.831 21.3735 16.5291 21.3301 17.0603C21.2885 17.5697 21.2179 17.7585 21.1706 17.8512C20.9909 18.204 20.704 18.4909 20.3512 18.6706C20.2585 18.7179 20.0697 18.7885 19.5603 18.8301C19.0291 18.8735 18.331 18.875 17.25 18.875H10.125V5.125H17.25ZM6.75 5.125H8.25V18.875H6.75C5.66896 18.875 4.97095 18.8735 4.43969 18.8301C3.93032 18.7885 3.74148 18.7179 3.64877 18.6706C3.29596 18.4909 3.00913 18.204 2.82936 17.8512C2.78213 17.7585 2.71148 17.5697 2.66986 17.0603C2.62646 16.5291 2.625 15.831 2.625 14.75V9.25C2.625 8.16896 2.62646 7.47095 2.66986 6.93969C2.71148 6.43032 2.78213 6.24148 2.82936 6.14877C3.00913 5.79596 3.29596 5.50913 3.64877 5.32936C3.74147 5.28213 3.93032 5.21148 4.43969 5.16986C4.97095 5.12646 5.66896 5.125 6.75 5.125ZM1.15873 5.29754C0.75 6.0997 0.75 7.1498 0.75 9.25V14.75C0.75 16.8502 0.75 17.9003 1.15873 18.7025C1.51825 19.4081 2.09193 19.9817 2.79754 20.3413C3.5997 20.75 4.6498 20.75 6.75 20.75H17.25C19.3502 20.75 20.4003 20.75 21.2025 20.3413C21.9081 19.9817 22.4817 19.4081 22.8413 18.7025C23.25 17.9003 23.25 16.8502 23.25 14.75V9.25C23.25 7.1498 23.25 6.0997 22.8413 5.29754C22.4817 4.59193 21.9081 4.01825 21.2025 3.65873C20.4003 3.25 19.3502 3.25 17.25 3.25H6.75C4.6498 3.25 3.5997 3.25 2.79754 3.65873C2.09193 4.01825 1.51825 4.59193 1.15873 5.29754ZM4.5 7C4.15482 7 3.875 7.27982 3.875 7.625C3.875 7.97018 4.15482 8.25 4.5 8.25H6.375C6.72018 8.25 7 7.97018 7 7.625C7 7.27982 6.72018 7 6.375 7H4.5ZM3.875 10.125C3.875 9.77982 4.15482 9.5 4.5 9.5H6.375C6.72018 9.5 7 9.77982 7 10.125C7 10.4702 6.72018 10.75 6.375 10.75H4.5C4.15482 10.75 3.875 10.4702 3.875 10.125ZM4.5 12C4.15482 12 3.875 12.2798 3.875 12.625C3.875 12.9702 4.15482 13.25 4.5 13.25H6.375C6.72018 13.25 7 12.9702 7 12.625C7 12.2798 6.72018 12 6.375 12H4.5Z" fill="currentColor"/>
</svg>
