<svg width="16" height="16" viewBox="0 0 16 16" fill="none" xmlns="http://www.w3.org/2000/svg">
    <path d="M6 2.25V3H10V2.25C10 1.83579 9.66421 1.5 9.25 1.5H6.75C6.33579 1.5 6 1.83579 6 2.25ZM4.5 3V2.25C4.5 1.00736 5.50736 0 6.75 0H9.25C10.4926 0 11.5 1.00736 11.5 2.25V3H14.25C14.6642 3 15 3.33579 15 3.75C15 4.16421 14.6642 4.5 14.25 4.5H13.7027L13.1673 12.7096C13.1388 13.1462 13.1146 13.5171 13.0704 13.821C13.024 14.1406 12.9481 14.4463 12.7839 14.7353C12.534 15.175 12.1566 15.5285 11.7017 15.7493C11.4026 15.8944 11.0925 15.9501 10.7707 15.9757C10.4646 16 10.093 16 9.65549 16H6.34471C5.90724 16 5.5354 16 5.22934 15.9757C4.90745 15.9501 4.59743 15.8944 4.29834 15.7493C3.84334 15.5285 3.46599 15.175 3.2161 14.7353C3.05185 14.4463 2.97602 14.1406 2.92956 13.821C2.88537 13.5171 2.86119 13.1462 2.83272 12.7096L2.29732 4.5H1.75C1.33579 4.5 1 4.16421 1 3.75C1 3.33579 1.33579 3 1.75 3H4.5ZM3.8005 4.5L4.32768 12.5834C4.35852 13.0563 4.37936 13.3673 4.41395 13.6052C4.44722 13.834 4.48577 13.9336 4.52019 13.9941C4.62015 14.17 4.77109 14.3114 4.95309 14.3997C5.01577 14.4301 5.11761 14.4621 5.34811 14.4804C5.58774 14.4994 5.89943 14.5 6.37334 14.5H9.62666C10.1006 14.5 10.4123 14.4994 10.6519 14.4804C10.8824 14.4621 10.9842 14.4301 11.0469 14.3997C11.2289 14.3114 11.3798 14.17 11.4798 13.9941C11.5142 13.9336 11.5528 13.834 11.586 13.6052C11.6206 13.3673 11.6415 13.0563 11.6723 12.5834L12.1995 4.5H3.8005ZM6.25 6C6.66421 6 7 6.33579 7 6.75V12.25C7 12.6642 6.66421 13 6.25 13C5.83579 13 5.5 12.6642 5.5 12.25V6.75C5.5 6.33579 5.83579 6 6.25 6ZM9.75 6C10.1642 6 10.5 6.33579 10.5 6.75V12.25C10.5 12.6642 10.1642 13 9.75 13C9.33579 13 9 12.6642 9 12.25V6.75C9 6.33579 9.33579 6 9.75 6Z" fill="currentColor"/>
</svg>
