<svg width="16" height="16" viewBox="0 0 16 16" fill="none" xmlns="http://www.w3.org/2000/svg">
    <path d="M0 5.8V9.46101C0 10.751 0 11.3959 0.21589 11.9411C0.406486 12.4224 0.715372 12.8463 1.11318 13.1725C1.56378 13.542 2.17197 13.7316 3.38834 14.111L6.78839 15.1713C8.89178 15.8273 9.94348 16.1553 10.7779 15.9283C11.5086 15.7294 12.1381 15.2581 12.5405 14.6088C12.7875 14.2102 12.9017 13.7036 12.9545 12.9739C13.5669 12.9394 13.9966 12.8592 14.362 12.673C14.9265 12.3854 15.3854 11.9265 15.673 11.362C16 10.7202 16 9.88016 16 8.2V5.8C16 4.11984 16 3.27976 15.673 2.63803C15.3854 2.07354 14.9265 1.6146 14.362 1.32698C13.7202 1 12.8802 1 11.2 1H4.8C3.11984 1 2.27976 1 1.63803 1.32698C1.07354 1.6146 0.614601 2.07354 0.32698 2.63803C0 3.27976 0 4.11984 0 5.8ZM11.2 2.5C12.0648 2.5 12.6232 2.50117 13.0482 2.53589C13.4557 2.56918 13.6068 2.6257 13.681 2.66349C13.9632 2.8073 14.1927 3.03677 14.3365 3.31901C14.3743 3.39318 14.4308 3.54426 14.4641 3.95175C14.4988 4.37676 14.5 4.93517 14.5 5.8V8.2C14.5 9.06483 14.4988 9.62324 14.4641 10.0482C14.4308 10.4557 14.3743 10.6068 14.3365 10.681C14.1927 10.9632 13.9632 11.1927 13.681 11.3365C13.6068 11.3743 13.4557 11.4308 13.0482 11.4641L12.9984 11.468C13 11.1767 13 10.862 13 10.5214V8.53899C13 7.24904 13 6.60406 12.7841 6.05889C12.5935 5.57758 12.2846 5.15369 11.8868 4.82751C11.4362 4.45803 10.828 4.26836 9.61161 3.889L6.21161 2.82865C5.82288 2.70742 5.47008 2.59739 5.14792 2.5H11.2ZM9.25 9.5C8.55964 9.5 8 8.94036 8 8.25C8 7.55964 8.55964 7 9.25 7C9.94036 7 10.5 7.55964 10.5 8.25C10.5 8.94036 9.94036 9.5 9.25 9.5Z" fill="currentColor"/>
</svg>
