<svg width="32" height="32" viewBox="0 0 32 32" fill="none" xmlns="http://www.w3.org/2000/svg">
    <path fill-rule="evenodd" clip-rule="evenodd" d="M18.8 6.4C18.8 7.72548 17.7255 8.8 16.4 8.8C15.0745 8.8 14 7.72548 14 6.4C14 5.07452 15.0745 4 16.4 4C17.7255 4 18.8 5.07452 18.8 6.4ZM19.6 16C19.6 17.7673 18.1673 19.2 16.4 19.2C14.6327 19.2 13.2 17.7673 13.2 16C13.2 14.2327 14.6327 12.8 16.4 12.8C18.1673 12.8 19.6 14.2327 19.6 16ZM16.4 28C17.7255 28 18.8 26.9255 18.8 25.6C18.8 24.2745 17.7255 23.2 16.4 23.2C15.0745 23.2 14 24.2745 14 25.6C14 26.9255 15.0745 28 16.4 28ZM9.19999 16C9.19999 17.3255 8.12548 18.4 6.79999 18.4C5.47451 18.4 4.39999 17.3255 4.39999 16C4.39999 14.6745 5.47451 13.6 6.79999 13.6C8.12548 13.6 9.19999 14.6745 9.19999 16ZM6.79999 8C7.68365 8 8.39999 7.28366 8.39999 6.4C8.39999 5.51634 7.68365 4.8 6.79999 4.8C5.91634 4.8 5.19999 5.51634 5.19999 6.4C5.19999 7.28366 5.91634 8 6.79999 8ZM8.39999 25.6C8.39999 26.4837 7.68365 27.2 6.79999 27.2C5.91634 27.2 5.19999 26.4837 5.19999 25.6C5.19999 24.7163 5.91634 24 6.79999 24C7.68365 24 8.39999 24.7163 8.39999 25.6ZM26 18.4C27.3255 18.4 28.4 17.3255 28.4 16C28.4 14.6745 27.3255 13.6 26 13.6C24.6745 13.6 23.6 14.6745 23.6 16C23.6 17.3255 24.6745 18.4 26 18.4ZM27.6 6.4C27.6 7.28366 26.8836 8 26 8C25.1163 8 24.4 7.28366 24.4 6.4C24.4 5.51634 25.1163 4.8 26 4.8C26.8836 4.8 27.6 5.51634 27.6 6.4ZM26 27.2C26.8836 27.2 27.6 26.4837 27.6 25.6C27.6 24.7163 26.8836 24 26 24C25.1163 24 24.4 24.7163 24.4 25.6C24.4 26.4837 25.1163 27.2 26 27.2Z" fill="#64D2FF"/>
</svg>
